<?xml version="1.0" standalone="no"?>
<!DOCTYPE svg PUBLIC "-//W3C//DTD SVG 20010904//EN"
 "http://www.w3.org/TR/2001/REC-SVG-20010904/DTD/svg10.dtd">
<svg version="1.0" xmlns="http://www.w3.org/2000/svg"
 width="1488.000000pt" height="1488.000000pt" viewBox="0 0 1488.000000 1488.000000"
 preserveAspectRatio="xMidYMid meet">
<metadata>
Created by potrace 1.14, written by Peter Selinger 2001-2017
</metadata>
<g transform="translate(0.000000,1488.000000) scale(0.100000,-0.100000)"
fill="#000000" stroke="none">
<path d="M7590 11453 c-1 -5 -3 -93 -6 -198 -2 -104 -6 -195 -9 -202 -6 -18
14 -27 63 -30 27 -1 42 2 43 10 0 7 3 105 6 220 l5 207 -51 0 c-28 0 -51 -3
-51 -7z"/>
<path d="M7044 11444 c-5 -2 -27 -5 -49 -7 l-40 -3 1 -50 c1 -27 4 -92 8 -144
4 -52 9 -117 11 -145 2 -27 4 -60 4 -72 1 -19 6 -22 39 -19 20 2 45 4 55 5 13
1 17 7 13 19 -3 9 -6 44 -8 77 -2 50 0 60 14 63 19 4 30 -8 86 -88 l38 -55 57
-1 c31 -1 57 3 57 8 0 6 -27 46 -60 90 l-60 80 25 19 c27 22 47 81 40 119 -13
71 -58 101 -154 104 -37 1 -72 1 -77 0z m108 -89 c29 -17 30 -64 3 -91 -26
-26 -84 -34 -86 -11 -5 40 -7 93 -4 102 4 14 64 13 87 0z"/>
<path d="M8007 11433 c-3 -4 -8 -30 -12 -58 -3 -27 -8 -66 -11 -85 -3 -19 -7
-53 -9 -75 -3 -22 -7 -62 -11 -90 -3 -27 -7 -66 -10 -86 -3 -24 0 -36 8 -36
20 -1 119 -12 158 -17 19 -3 52 -8 73 -11 30 -4 37 -2 38 13 0 9 2 27 5 40 2
14 -1 22 -11 23 -8 1 -18 2 -22 3 -5 2 -38 6 -74 10 -59 7 -65 10 -63 29 1 12
3 35 3 51 l1 28 58 -7 c31 -4 61 -8 66 -8 10 -2 32 60 24 68 -2 2 -22 7 -44
10 -90 13 -91 14 -87 43 9 56 14 73 21 68 4 -2 39 -7 77 -11 39 -4 73 -9 76
-11 8 -4 19 32 19 62 0 17 -7 21 -32 22 -18 1 -42 4 -53 6 -11 2 -49 7 -85 11
-36 3 -72 8 -82 11 -9 3 -19 1 -21 -3z"/>
<path d="M6383 11340 c-97 -20 -116 -26 -109 -39 4 -6 25 -98 42 -186 2 -11 6
-31 9 -45 3 -14 8 -41 11 -60 3 -19 8 -38 10 -41 2 -3 6 -21 9 -40 3 -18 7
-35 9 -36 8 -9 208 43 244 64 90 52 127 169 83 268 -27 61 -45 82 -94 106 -53
28 -108 30 -214 9z m164 -85 c68 -45 78 -171 16 -227 -18 -16 -103 -41 -112
-32 -2 2 -16 62 -31 133 l-27 130 36 8 c46 12 88 7 118 -12z"/>
<path d="M8569 11338 c-1 -18 -4 -34 -24 -108 -17 -64 -20 -79 -30 -121 -2
-12 -12 -47 -21 -78 -28 -97 -28 -98 8 -109 201 -62 303 -50 367 43 65 96 50
237 -32 297 -46 34 -71 44 -169 67 -103 25 -98 24 -99 9z m210 -142 c19 -19
26 -37 27 -71 2 -61 -14 -101 -55 -137 -28 -24 -39 -28 -70 -24 -20 3 -43 5
-51 6 -36 1 -41 14 -25 75 9 32 17 66 19 74 3 18 25 99 31 118 6 19 93 -11
124 -41z"/>
<path d="M5615 11105 c-38 -18 -130 -57 -172 -74 -18 -8 -33 -17 -33 -21 0 -7
70 -175 111 -268 11 -24 27 -61 35 -82 9 -22 21 -40 26 -40 13 0 230 91 242
101 12 10 -13 69 -29 69 -7 0 -43 -14 -80 -31 -37 -16 -70 -28 -73 -25 -3 3
-13 24 -23 46 -17 38 -17 41 -1 47 9 3 37 15 60 25 40 18 43 22 37 46 -11 44
-20 47 -84 19 l-59 -26 -16 40 c-9 22 -16 43 -16 47 0 4 34 21 75 37 41 17 75
35 75 42 0 21 -23 63 -34 62 -6 0 -24 -7 -41 -14z"/>
<path d="M9562 10966 c-85 -30 -141 -109 -150 -211 -3 -49 0 -69 17 -103 38
-75 139 -129 218 -119 47 7 57 19 46 54 -8 24 -15 28 -49 30 -58 2 -92 18
-114 55 -24 40 -25 78 -4 121 40 79 97 108 159 83 21 -9 50 -30 65 -47 26 -30
28 -31 56 -18 39 19 41 41 4 82 -57 66 -173 100 -248 73z"/>
<path d="M5013 10811 c-72 -42 -135 -79 -138 -83 -8 -7 25 -68 36 -68 4 0 37
18 74 41 73 44 101 57 93 43 -3 -5 -9 -47 -12 -94 -9 -111 -17 -199 -21 -229
-2 -13 3 -37 11 -53 l15 -29 32 19 c18 11 80 47 139 82 60 34 110 65 112 69 3
4 -4 21 -16 39 l-20 32 -28 -20 c-15 -11 -31 -20 -34 -20 -4 0 -24 -11 -46
-25 -44 -28 -66 -35 -64 -20 2 9 4 41 20 245 9 107 8 111 -8 132 -11 14 -29 6
-145 -61z"/>
<path d="M7327 10804 c-1 -1 -56 -5 -122 -8 -66 -4 -129 -9 -140 -11 -11 -2
-51 -7 -88 -10 -37 -4 -76 -8 -86 -10 -10 -2 -42 -6 -72 -10 -193 -23 -493
-96 -744 -180 -608 -202 -1120 -512 -1546 -935 -238 -235 -401 -445 -556 -715
-142 -245 -265 -558 -318 -805 -2 -8 -8 -36 -14 -63 -6 -26 -14 -64 -17 -85
-3 -20 -9 -55 -13 -77 l-7 -40 -39 70 c-179 322 -574 667 -1045 913 -240 125
-612 265 -798 298 -14 3 -55 11 -92 19 -36 7 -92 16 -125 20 -33 4 -71 9 -85
11 -14 3 -81 5 -150 5 -251 0 -330 -24 -330 -103 0 -24 23 -59 78 -117 85 -90
213 -361 252 -536 10 -46 13 -63 29 -175 10 -65 8 -403 -3 -450 -8 -37 -65
-388 -71 -440 -3 -25 -8 -56 -10 -70 -4 -23 -9 -77 -21 -210 -5 -64 -5 -410 0
-440 2 -14 7 -52 11 -85 37 -357 222 -778 486 -1111 146 -183 356 -362 530
-448 150 -75 195 -57 198 79 1 62 3 73 23 165 15 71 12 63 55 168 46 114 137
236 233 315 30 25 134 95 230 157 96 61 211 140 255 175 198 154 343 360 424
600 l29 88 22 -74 c129 -441 363 -863 672 -1209 120 -134 159 -173 344 -341
116 -106 354 -278 538 -389 325 -196 790 -390 1114 -465 9 -2 46 -11 82 -20
149 -37 355 -74 505 -91 33 -3 68 -8 77 -9 137 -26 789 -26 951 0 12 2 49 6
82 10 54 5 87 10 220 31 22 3 103 19 180 35 537 113 1054 332 1500 637 61 41
112 78 115 81 3 4 21 18 40 31 19 13 37 27 40 30 3 3 28 23 55 45 235 187 471
437 652 690 214 298 395 685 473 1010 12 50 23 97 26 105 3 8 23 -18 48 -67
235 -439 763 -859 1400 -1113 106 -42 322 -113 411 -136 17 -4 35 -8 40 -10 6
-1 21 -4 35 -7 14 -3 36 -8 50 -11 45 -11 101 -19 235 -35 90 -11 314 -6 384
8 105 21 131 84 65 157 -60 66 -134 175 -179 264 -44 87 -99 238 -110 299 -3
19 -8 38 -10 41 -4 7 -22 115 -30 185 -5 42 -6 296 -1 320 2 11 7 52 11 90 4
39 9 79 11 90 3 11 7 36 10 55 2 19 9 55 14 80 5 25 12 63 15 85 3 22 7 51 10
65 5 36 33 274 40 345 6 65 6 386 0 450 -2 22 -7 65 -11 95 -4 30 -8 64 -9 75
-16 137 -96 380 -190 571 -207 420 -506 749 -829 912 -129 65 -182 41 -185
-84 -4 -157 -59 -330 -148 -469 -85 -131 -163 -195 -470 -389 -241 -153 -401
-314 -511 -516 -22 -41 -48 -95 -58 -120 -9 -25 -21 -48 -25 -53 -5 -4 -7 -5
-5 -1 6 8 -56 239 -95 354 -60 181 -225 534 -275 591 -8 8 -14 19 -14 23 0 15
-161 244 -246 351 -120 150 -381 408 -544 539 -372 297 -789 522 -1250 676
-234 79 -481 142 -640 165 -24 4 -47 8 -50 10 -3 1 -30 6 -61 9 -31 4 -65 8
-75 10 -11 2 -50 7 -89 11 -38 4 -77 9 -86 10 -60 11 -602 28 -612 19z m483
-168 c63 -5 123 -10 133 -12 10 -2 46 -6 80 -9 70 -7 68 -7 237 -35 69 -12
154 -28 190 -36 36 -9 72 -17 80 -19 115 -25 368 -103 506 -157 l102 -39 50
-117 c161 -374 291 -760 380 -1124 l38 -152 90 -31 c124 -43 214 -89 303 -156
127 -95 176 -154 205 -245 47 -143 12 -286 -98 -400 -33 -34 -54 -65 -52 -74
65 -220 67 -339 11 -621 l-7 -36 49 -13 c176 -47 292 -100 393 -181 34 -28 65
-48 68 -44 9 8 8 611 -2 755 -10 160 -12 194 -20 263 -3 32 -9 83 -12 115 -4
31 -7 64 -9 72 -1 8 -6 40 -9 70 -4 30 -11 78 -16 105 -5 28 -12 70 -15 95
-12 79 -13 85 -25 146 -7 32 -13 64 -15 69 -1 6 -5 28 -9 50 -5 22 -19 87 -33
145 -14 58 -26 112 -28 120 -12 58 -74 275 -116 409 -16 51 -28 95 -27 97 5 4
181 -168 253 -246 502 -549 779 -1239 776 -1935 0 -77 -3 -165 -6 -195 -9
-104 -16 -169 -20 -192 -3 -13 -10 -52 -15 -87 -6 -34 -17 -91 -26 -125 -8
-33 -17 -72 -20 -85 -9 -42 -75 -243 -106 -321 -144 -365 -390 -733 -682
-1025 -61 -61 -124 -122 -140 -135 -26 -23 -28 -23 -24 -5 3 11 27 90 52 176
25 86 46 159 46 162 0 3 -29 -7 -64 -24 -67 -31 -79 -35 -166 -51 -52 -9 -160
-6 -225 7 -37 8 -151 61 -185 87 -14 11 -49 42 -78 71 -61 58 -62 58 -87 -42
-50 -203 -187 -609 -302 -891 -80 -195 -70 -182 -165 -218 -144 -54 -397 -135
-453 -146 -11 -2 -38 -9 -60 -14 -43 -11 -218 -47 -275 -57 -19 -3 -60 -10
-90 -15 -30 -5 -84 -12 -120 -15 -36 -4 -71 -8 -78 -11 -79 -25 -803 -24 -955
1 -12 2 -60 9 -107 15 -47 6 -121 17 -165 25 -44 8 -93 17 -110 19 -16 3 -45
10 -63 15 -18 5 -35 10 -37 10 -3 0 -18 2 -33 5 -15 4 -36 8 -47 11 -103 21
-447 131 -548 174 -42 18 -46 23 -87 122 -23 57 -48 118 -56 135 -78 178 -249
703 -314 964 -11 47 -23 91 -25 98 -3 8 -19 -3 -42 -29 -87 -97 -237 -187
-372 -223 -73 -20 -226 -34 -288 -25 -24 3 -43 5 -43 4 0 -8 82 -290 95 -324
l16 -45 -28 24 c-77 68 -277 277 -343 359 -53 65 -91 101 -129 123 -71 41
-178 122 -214 162 -16 17 -43 60 -60 96 -27 55 -32 78 -34 148 -1 46 2 93 7
106 6 16 0 41 -22 92 -87 199 -171 486 -194 654 -3 19 -7 46 -9 60 -5 26 -10
70 -20 180 -11 118 -5 423 9 500 3 14 8 50 11 80 4 30 15 98 26 150 101 498
343 970 702 1375 73 81 269 276 274 271 2 -1 -11 -47 -27 -102 -75 -240 -138
-484 -175 -669 -7 -38 -16 -83 -20 -100 -14 -70 -54 -307 -60 -356 -3 -30 -8
-65 -10 -79 -4 -30 -12 -97 -30 -280 -10 -97 -16 -211 -20 -412 l-5 -209 49
64 c27 36 68 82 91 103 24 22 49 44 55 51 26 26 131 87 194 112 79 33 135 47
219 57 34 4 64 10 67 14 2 4 7 25 9 46 21 166 55 256 144 384 50 73 53 52 -25
180 -63 103 -91 203 -91 321 1 210 125 409 314 501 36 18 42 27 54 72 42 167
180 552 302 843 l59 142 103 40 c304 117 719 218 1021 247 39 3 78 8 89 10 10
2 66 6 124 9 59 4 108 7 109 9 5 5 400 -2 503 -8z m-5399 -1924 c306 -154 529
-312 745 -527 200 -198 333 -409 391 -620 25 -91 27 -115 27 -275 -1 -458
-117 -782 -368 -1024 -58 -56 -202 -160 -331 -240 -60 -38 -138 -89 -173 -113
-76 -54 -71 -56 -160 76 -100 147 -158 257 -218 413 -39 104 -91 307 -100 398
-3 36 -8 68 -11 72 -5 10 -4 292 2 338 12 93 17 123 45 266 17 85 33 171 36
192 3 20 7 48 10 62 20 118 26 479 11 615 -15 129 -62 317 -114 450 -8 22 30
7 208 -83z m10013 16 c91 -123 163 -252 239 -428 53 -121 106 -339 123 -495 6
-66 7 -308 0 -340 -2 -11 -7 -49 -12 -85 -4 -36 -8 -67 -9 -70 -1 -3 -5 -25
-10 -50 -5 -25 -9 -47 -10 -50 -7 -30 -25 -123 -29 -151 -3 -20 -7 -42 -10
-50 -34 -101 -42 -604 -12 -754 2 -11 7 -40 11 -65 9 -60 50 -208 75 -270 23
-59 23 -60 10 -60 -19 0 -274 128 -376 188 -98 57 -284 179 -294 191 -3 3 -34
28 -69 56 -338 260 -577 608 -618 898 -14 98 -7 394 12 482 3 11 7 38 10 60
10 73 56 227 94 314 89 207 234 367 476 525 83 54 193 127 245 162 52 35 96
64 97 64 2 0 27 -33 57 -72z"/>
<path d="M6223 9650 c-36 -22 -53 -42 -58 -71 -8 -38 -23 -140 -30 -198 -4
-30 -8 -61 -10 -70 -3 -16 -13 -90 -19 -146 -5 -41 -17 -124 -22 -155 -2 -14
-6 -47 -9 -75 -3 -27 -8 -59 -9 -70 -2 -11 -8 -49 -12 -85 -4 -36 -9 -68 -10
-72 -1 -5 -2 -14 -3 -21 -2 -29 -151 -78 -237 -79 -112 -2 -191 56 -201 145
-5 41 -2 49 24 76 52 52 152 51 226 -1 55 -39 119 -18 132 43 13 56 -50 113
-161 145 -142 41 -296 -18 -361 -139 -28 -51 -25 -178 6 -240 32 -65 94 -125
161 -155 80 -36 220 -42 314 -14 l68 21 -6 -47 c-11 -91 -16 -127 -22 -162 -3
-19 -8 -48 -10 -63 -15 -123 -61 -361 -76 -402 -27 -71 -108 -139 -157 -130
-9 1 -32 5 -51 9 -58 10 -120 84 -120 144 0 38 31 122 56 152 38 45 77 61 155
64 71 3 89 12 105 59 9 28 -16 78 -47 91 -46 19 -167 4 -234 -29 -204 -104
-257 -413 -95 -559 133 -120 333 -118 452 5 63 65 107 176 132 339 3 19 8 46
10 60 8 46 47 295 51 325 2 17 7 53 11 80 10 69 12 88 13 105 1 8 5 21 9 28 9
13 173 85 179 78 2 -2 19 -61 38 -132 161 -612 375 -872 623 -759 76 35 122
80 122 120 0 41 -23 72 -61 80 -25 6 -39 1 -75 -25 -86 -62 -130 -57 -201 24
-89 102 -180 321 -261 636 -37 142 -39 127 20 144 114 32 205 22 257 -28 62
-60 65 -195 6 -238 -5 -4 -24 -8 -42 -8 -75 0 -117 -93 -63 -140 12 -11 30
-20 39 -21 121 -9 222 61 254 177 32 114 1 261 -71 337 -36 38 -96 73 -152 87
-62 17 -183 14 -254 -5 -32 -8 -60 -14 -61 -13 -2 3 -27 139 -40 216 -3 17 -7
46 -10 62 -10 62 -14 86 -20 130 -3 25 -8 56 -10 70 -2 14 -7 50 -10 80 -20
199 -25 209 -112 230 -23 5 -39 3 -60 -10z m54 -522 c2 -27 29 -176 47 -264
l14 -62 -59 -26 c-32 -14 -61 -26 -64 -26 -3 0 -3 12 -1 28 4 26 10 65 20 142
3 19 8 58 12 85 8 60 12 92 13 123 1 12 5 22 9 22 4 0 8 -10 9 -22z"/>
<path d="M7502 9445 c-50 -22 -133 -191 -183 -372 -23 -82 -23 -86 -45 -208
-16 -97 -19 -111 -34 -195 -5 -30 -12 -77 -16 -105 -3 -27 -8 -52 -9 -55 -2
-3 -6 -37 -10 -75 -3 -39 -9 -83 -11 -100 -3 -16 -5 -72 -6 -122 0 -164 51
-258 135 -249 64 7 91 85 46 132 -18 19 -21 35 -22 101 0 73 8 183 17 228 2
11 7 43 10 70 4 28 9 57 11 65 2 8 6 38 10 65 3 28 8 59 10 70 5 21 12 57 21
115 31 189 82 353 144 466 45 82 50 124 19 153 -29 26 -51 31 -87 16z"/>
<path d="M7925 9380 c-28 -11 -48 -35 -88 -110 -32 -58 -99 -236 -112 -293 -9
-46 -54 -284 -59 -322 -6 -35 -10 -59 -22 -127 -1 -9 -6 -38 -10 -65 -3 -26
-8 -56 -10 -67 -10 -58 -19 -174 -18 -262 0 -158 42 -239 124 -239 71 0 101
67 58 128 -20 28 -23 44 -22 127 1 106 7 173 28 305 8 50 17 108 20 130 39
263 94 468 163 604 29 57 53 112 53 121 0 42 -64 85 -105 70z"/>
<path d="M8155 8628 c-174 -115 -308 -499 -228 -654 73 -139 266 -197 447
-134 33 11 61 19 62 17 8 -8 -34 -132 -47 -138 -8 -4 -61 -22 -119 -39 -256
-78 -440 -203 -511 -347 -30 -63 -33 -179 -5 -236 47 -94 141 -147 253 -141
187 9 345 183 478 523 l40 105 84 22 c216 59 324 111 394 190 40 46 46 62 36
98 -11 37 -36 55 -76 56 -26 0 -43 -10 -81 -48 -51 -50 -145 -97 -245 -123
-53 -13 -63 -9 -49 18 6 10 13 32 16 48 5 25 16 77 42 190 30 128 68 357 68
407 0 66 -51 100 -109 72 -39 -18 -42 -25 -59 -139 -33 -213 -48 -255 -113
-317 -106 -103 -310 -111 -360 -15 -45 87 52 351 165 448 53 46 67 80 47 119
-17 32 -20 35 -56 43 -19 5 -38 -1 -74 -25z m175 -1107 c0 -24 -75 -172 -124
-245 -84 -126 -174 -181 -252 -156 -47 16 -68 50 -61 100 13 100 159 217 357
286 75 26 80 27 80 15z"/>
<path d="M9263 8640 c-106 -22 -205 -96 -240 -179 -24 -56 -25 -155 -3 -214
22 -58 78 -120 133 -148 20 -11 81 -28 135 -40 123 -25 208 -64 271 -126 56
-55 73 -100 76 -207 6 -204 -90 -379 -247 -451 -75 -34 -128 -44 -216 -40 -92
4 -170 24 -260 66 -88 42 -113 44 -146 14 -29 -27 -34 -69 -11 -101 29 -42
210 -116 320 -131 337 -47 601 114 689 419 24 80 26 95 30 178 4 90 -7 171
-35 245 -45 120 -228 252 -390 280 -129 23 -172 42 -195 87 -21 41 -13 102 18
135 40 44 77 56 169 59 143 5 277 -42 391 -138 26 -21 61 -41 78 -43 56 -7
103 59 78 110 -28 55 -187 159 -303 197 -106 34 -253 46 -342 28z"/>
<path d="M4961 7499 c-261 -83 -386 -350 -270 -580 29 -58 87 -106 204 -170
64 -35 125 -76 146 -100 106 -114 120 -280 35 -404 -132 -194 -401 -196 -640
-6 -45 36 -83 39 -120 10 -28 -22 -35 -64 -16 -99 15 -27 130 -106 212 -145
125 -59 256 -80 377 -61 149 24 289 135 359 284 33 71 36 86 39 180 2 87 -1
112 -21 166 -54 150 -133 235 -293 315 -130 65 -170 119 -165 224 4 82 69 171
162 219 66 34 175 31 295 -9 109 -37 212 -85 282 -131 43 -29 58 -33 87 -28
44 8 58 27 60 74 1 46 -9 57 -96 110 -156 95 -393 173 -525 171 -26 0 -77 -9
-112 -20z"/>
<path d="M5833 7115 c-63 -27 -168 -144 -210 -235 -41 -90 -62 -208 -58 -335
3 -111 5 -125 33 -188 98 -221 371 -213 539 15 l36 49 17 -50 c37 -110 106
-174 208 -193 256 -48 472 224 473 597 1 222 -27 287 -114 271 -48 -9 -68 -50
-55 -114 10 -53 13 -206 4 -267 -20 -149 -116 -299 -206 -326 -134 -40 -194
68 -185 336 2 72 7 156 10 187 6 52 5 59 -19 83 -27 27 -52 31 -90 14 -27 -13
-41 -41 -51 -104 -3 -22 -18 -78 -31 -125 -65 -215 -180 -363 -292 -374 -33
-4 -44 0 -67 24 -43 45 -54 92 -51 210 6 182 60 294 190 393 45 35 50 85 12
120 -29 27 -50 30 -93 12z"/>
<path d="M9915 7059 c-95 -15 -190 -63 -251 -127 -32 -34 -84 -122 -84 -143 0
-19 -75 -35 -182 -38 l-70 -2 6 38 c24 138 25 165 10 194 -23 46 -81 53 -118
16 -22 -22 -25 -34 -52 -192 -3 -16 -7 -31 -9 -34 -3 -2 -30 1 -61 8 -32 6
-69 11 -84 11 -52 0 -87 -69 -60 -119 10 -19 46 -37 95 -46 17 -3 37 -8 45
-10 8 -2 21 -4 28 -4 13 -1 12 -19 -4 -106 -21 -106 -22 -245 -3 -312 17 -61
80 -126 136 -140 119 -30 253 23 339 135 22 29 34 56 34 77 0 67 -87 101 -133
51 -12 -13 -33 -36 -46 -50 -50 -56 -124 -78 -160 -49 -27 22 -33 83 -20 178
5 33 11 78 14 100 3 22 7 49 9 60 3 11 5 23 5 26 1 3 49 9 109 12 100 5 150
12 180 22 6 2 12 1 12 -4 0 -14 73 -86 120 -118 25 -17 86 -52 135 -78 184
-97 249 -157 258 -238 10 -82 -40 -157 -104 -157 -54 0 -85 28 -95 88 -11 63
-83 89 -130 49 -35 -31 -35 -90 1 -163 103 -210 417 -162 479 72 25 95 4 205
-52 284 -44 61 -132 126 -265 197 -138 72 -217 136 -217 175 0 13 9 38 20 56
92 151 281 164 464 32 32 -24 57 -34 75 -32 39 5 71 40 71 78 0 76 -175 180
-335 200 -27 4 -52 7 -55 8 -3 2 -27 -1 -55 -5z"/>
<path d="M7440 7018 c-167 -25 -294 -158 -344 -362 -33 -131 -23 -262 29 -371
57 -120 148 -191 284 -221 156 -35 372 17 486 117 41 37 48 86 15 119 -36 36
-64 35 -128 -4 -87 -54 -157 -77 -245 -82 -152 -7 -261 67 -291 198 l-6 27 97
0 c303 1 468 93 489 274 16 132 -77 268 -200 293 -69 14 -138 19 -186 12z
m201 -206 c43 -49 37 -111 -15 -153 -43 -36 -167 -62 -283 -61 -93 1 -93 1
-93 17 0 33 43 124 76 164 46 53 85 74 154 81 75 7 126 -8 161 -48z"/>
<path d="M8474 6984 c-84 -17 -138 -47 -204 -113 -160 -160 -219 -425 -136
-607 64 -140 239 -245 410 -246 127 -1 281 36 322 77 34 34 33 87 -2 114 -34
27 -52 26 -138 -5 -126 -46 -294 -26 -382 44 -45 36 -83 108 -88 171 -3 28 -3
51 -1 51 2 0 43 -9 91 -21 97 -23 247 -31 319 -18 153 29 246 149 232 301 -13
142 -137 240 -332 261 -16 2 -58 -2 -91 -9z m154 -166 c63 -16 112 -65 112
-111 0 -91 -49 -122 -190 -121 -100 1 -250 29 -250 46 0 35 94 149 145 175 60
32 98 34 183 11z"/>
<path d="M10036 10529 l-188 -132 29 -23 c41 -33 58 -35 97 -8 19 13 40 24 45
24 9 0 92 -54 123 -80 4 -3 3 -22 -3 -43 -5 -21 -7 -46 -4 -57 8 -25 74 -64
80 -47 2 6 16 66 31 132 37 166 41 184 53 230 17 66 14 80 -27 109 -21 14 -40
26 -43 26 -2 0 -89 -59 -193 -131z m174 -6 c-5 -16 -16 -54 -24 -85 l-16 -57
-46 31 c-25 17 -42 34 -37 39 9 8 127 98 130 99 1 0 -2 -12 -7 -27z"/>
<path d="M4594 10542 c-11 -9 -60 -48 -108 -85 l-87 -68 78 -102 c43 -56 80
-104 83 -107 3 -3 27 -33 54 -67 26 -35 50 -63 54 -63 4 0 55 38 114 84 l106
83 -25 32 -25 31 -64 -50 c-35 -27 -68 -50 -73 -50 -5 0 -21 16 -36 35 l-27
36 28 22 c81 63 79 61 58 90 -10 15 -23 27 -28 27 -5 0 -28 -16 -52 -35 -23
-19 -47 -35 -52 -35 -5 0 -21 17 -35 37 l-26 37 37 25 c20 14 43 31 50 38 7 7
22 19 34 27 l21 15 -24 30 c-28 35 -28 35 -55 13z"/>
<path d="M10628 10277 c-26 -28 -92 -99 -147 -157 l-99 -105 32 -33 33 -34 55
59 c31 32 72 76 92 98 l37 40 -5 -55 c-25 -268 -25 -286 6 -317 l24 -24 110
117 c60 64 126 134 147 156 20 22 37 44 37 48 0 3 -14 19 -31 35 l-31 27 -40
-43 c-75 -82 -139 -149 -143 -149 -3 0 -3 6 0 13 4 14 13 109 21 235 6 86 5
87 -23 114 l-29 28 -46 -53z"/>
<path d="M4077 10095 c-53 -53 -97 -99 -97 -102 0 -7 259 -265 292 -291 16
-13 38 6 171 146 l39 40 -28 26 -29 26 -62 -62 -62 -61 -35 34 -36 33 47 48
47 47 -20 23 c-31 38 -34 37 -82 -14 l-46 -49 -35 35 -36 36 63 63 62 63 -28
27 -29 27 -96 -95z"/>
<path d="M11044 9729 c-65 -50 -140 -108 -166 -127 -27 -20 -48 -39 -48 -42 0
-3 33 -45 73 -94 85 -106 125 -130 208 -129 87 1 173 59 204 138 14 37 13 117
-2 154 -19 44 -124 189 -139 190 -5 1 -64 -40 -130 -90z m155 -65 c56 -71 49
-140 -20 -195 -73 -58 -147 -48 -198 27 l-24 34 29 23 c75 59 180 136 186 137
4 0 16 -12 27 -26z"/>
<path d="M3721 9667 c-26 -18 -155 -178 -148 -183 103 -75 311 -226 329 -238
25 -16 25 -16 52 24 14 22 26 42 26 44 0 3 -27 24 -60 47 -33 23 -60 45 -60
49 0 29 58 33 177 15 17 -3 32 8 59 41 20 24 35 46 33 49 -6 6 -87 13 -154 14
l-60 1 -1 39 c-2 50 -18 77 -57 101 -43 27 -95 25 -136 -3z m90 -90 c29 -22
32 -55 9 -92 l-22 -35 -45 32 c-24 18 -47 36 -50 41 -8 14 49 67 71 67 12 0
28 -6 37 -13z"/>
<path d="M11457 9175 c-77 -123 -80 -126 -152 -166 -72 -39 -73 -40 -62 -67
30 -69 26 -68 108 -27 l73 37 153 -6 c84 -3 153 -4 153 -1 0 19 -43 84 -57 89
-10 3 -60 4 -110 2 -51 -1 -93 -1 -93 1 0 1 27 39 60 84 46 62 59 87 54 103
-10 33 -34 76 -42 76 -4 0 -42 -56 -85 -125z"/>
<path d="M3351 9103 c-35 -68 -61 -126 -59 -127 11 -10 380 -197 383 -194 1 1
12 22 24 45 23 47 27 41 -61 88 -31 16 -57 33 -57 38 -1 4 12 34 29 67 l30 59
-29 16 c-17 8 -34 15 -39 15 -5 0 -22 -27 -38 -60 -16 -33 -33 -60 -37 -60
-11 0 -87 39 -87 45 0 3 16 37 35 75 19 38 35 73 35 78 0 5 -15 15 -33 24
l-33 16 -63 -125z"/>
<path d="M3570 5971 c-16 -20 -46 -55 -182 -219 -49 -57 -88 -106 -88 -108 0
-12 44 -74 53 -74 7 0 74 18 149 39 l137 38 -22 -27 c-12 -15 -55 -66 -95
-113 -77 -91 -80 -99 -44 -146 l19 -23 169 47 c192 52 264 75 264 81 0 10 -46
74 -56 78 -6 2 -70 -15 -143 -39 l-132 -43 23 28 c13 15 53 65 91 110 52 64
66 87 61 104 -17 54 -32 56 -159 20 -49 -14 -101 -27 -114 -30 -14 -3 -29 -8
-35 -11 -14 -9 8 19 65 81 26 28 63 69 82 91 l36 40 -26 47 c-15 27 -29 48
-32 48 -3 0 -13 -9 -21 -19z"/>
<path d="M11354 5909 c-29 -46 -28 -48 21 -124 19 -31 35 -58 35 -61 0 -3 16
-30 35 -60 19 -30 35 -57 35 -59 0 -3 -17 -3 -37 -1 -58 7 -204 19 -237 20
-24 1 -35 -7 -57 -39 -21 -30 -25 -43 -16 -51 7 -6 88 -59 182 -119 l169 -107
23 28 c13 16 23 34 23 41 0 10 -62 58 -100 76 -8 4 -40 23 -70 43 l-55 36 90
-7 c50 -3 107 -8 127 -10 30 -3 41 1 53 18 21 31 19 42 -19 106 -19 31 -46 78
-61 104 l-27 49 59 -38 c32 -20 81 -52 110 -71 29 -18 56 -33 62 -33 5 0 18
16 30 35 l21 35 -73 47 c-154 99 -288 183 -292 183 -3 0 -16 -18 -31 -41z"/>
<path d="M3976 5373 c-3 -10 -24 -49 -46 -88 -21 -38 -48 -86 -58 -105 -10
-19 -37 -69 -59 -110 l-41 -75 29 -33 c16 -17 32 -32 35 -32 3 0 64 29 135 65
71 36 129 63 129 61 0 -3 -11 -25 -24 -48 -13 -24 -45 -81 -70 -127 l-47 -84
32 -33 c37 -38 3 -48 267 85 l172 87 -35 37 c-19 20 -38 37 -41 37 -10 0 -194
-100 -227 -123 l-29 -20 17 34 c10 19 40 73 66 120 27 48 49 96 49 107 0 11
-11 30 -25 41 l-26 20 -47 -23 c-26 -12 -85 -41 -131 -65 l-84 -43 24 39 c12
21 44 73 71 115 26 43 48 84 48 93 0 15 -57 85 -70 85 -4 0 -10 -8 -14 -17z"/>
<path d="M10977 5336 c-42 -15 -58 -27 -99 -71 -95 -103 -69 -262 55 -339 40
-24 59 -29 110 -30 69 0 112 18 158 65 99 101 95 241 -11 331 -64 55 -138 70
-213 44z m155 -133 c60 -58 61 -130 2 -182 -47 -42 -95 -42 -151 -1 -74 55
-90 136 -35 193 51 54 121 50 184 -10z"/>
<path d="M10585 4963 c-79 -41 -135 -127 -135 -207 0 -85 70 -180 158 -215
108 -44 256 42 277 160 7 36 6 37 -30 41 -39 4 -49 -3 -58 -42 -8 -34 -59 -70
-100 -72 -119 -4 -195 159 -108 232 16 14 45 30 63 35 29 9 33 15 36 48 3 37
3 37 -35 37 -21 -1 -51 -8 -68 -17z"/>
<path d="M4491 4858 c-4 -13 -37 -110 -72 -216 l-64 -192 30 -25 c17 -13 36
-24 43 -25 7 0 63 38 124 85 61 46 113 83 115 81 2 -1 -17 -60 -42 -130 -25
-70 -45 -133 -45 -140 0 -22 60 -59 81 -50 23 11 349 257 349 264 0 3 -19 18
-41 32 -45 29 -53 28 -99 -14 -14 -13 -50 -43 -80 -67 -30 -25 -63 -51 -72
-59 -13 -11 -8 14 22 104 50 149 52 159 32 177 -40 35 -54 30 -170 -58 l-112
-86 29 78 c16 43 38 102 50 132 11 30 18 58 15 62 -2 4 -22 22 -44 39 l-40 32
-9 -24z"/>
<path d="M9973 4519 c-53 -26 -90 -69 -99 -114 -16 -86 69 -166 151 -143 17 4
47 10 67 13 32 4 40 1 54 -20 14 -21 14 -28 3 -41 -16 -19 -60 -43 -79 -42
-51 3 -58 -2 -62 -42 -3 -34 -1 -40 17 -41 74 -6 143 19 185 67 16 19 31 38
31 42 12 73 -6 132 -48 159 -28 19 -72 21 -159 8 -48 -7 -53 -6 -64 16 -11 20
-10 25 14 46 15 13 38 23 51 23 44 0 55 10 55 51 0 38 -1 39 -37 39 -21 0 -57
-9 -80 -21z"/>
<path d="M10417 4402 c-32 -35 -16 -78 32 -87 13 -2 27 5 40 21 42 54 -27 116
-72 66z"/>
<path d="M9570 4299 c-69 -34 -135 -65 -147 -70 -22 -8 -23 -9 -6 -44 19 -39
23 -41 61 -21 67 34 66 35 114 -66 25 -51 57 -121 73 -155 15 -35 32 -63 37
-63 17 0 89 41 85 48 -5 8 -65 137 -97 207 -12 28 -29 63 -37 78 l-14 28 55
24 55 24 -13 33 c-8 18 -20 34 -28 35 -7 1 -69 -25 -138 -58z"/>
<path d="M5261 4130 l-164 -160 44 -19 c47 -22 65 -17 103 25 l21 23 73 -32
73 -32 -1 -40 c-1 -22 -1 -46 -1 -52 1 -13 80 -58 88 -50 2 3 6 31 8 64 10
155 17 274 20 331 l4 62 -39 20 c-22 11 -45 20 -52 20 -7 -1 -87 -73 -177
-160z m174 -7 c-8 -74 -13 -105 -18 -109 -2 -2 -24 6 -50 19 l-46 22 56 63
c31 34 58 62 60 62 2 0 1 -26 -2 -57z"/>
<path d="M4906 4154 c-24 -24 -20 -61 9 -80 23 -15 27 -15 50 0 42 28 24 96
-25 96 -10 0 -26 -7 -34 -16z"/>
<path d="M9151 4124 c-68 -24 -126 -45 -127 -47 -3 -3 135 -397 142 -406 3 -4
246 79 257 89 11 10 -13 70 -29 70 -7 0 -43 -11 -80 -25 -36 -14 -70 -25 -74
-25 -7 0 -30 67 -30 87 0 5 27 17 60 27 33 10 60 22 60 27 0 6 -18 54 -26 67
-1 1 -25 -6 -53 -18 -28 -11 -58 -20 -65 -20 -10 0 -36 59 -36 82 0 3 35 18
78 33 42 16 78 29 79 30 5 3 -21 75 -26 74 -3 0 -62 -20 -130 -45z"/>
<path d="M5737 3936 c-37 -111 -67 -204 -67 -207 0 -4 51 -24 113 -44 61 -21
117 -40 123 -42 6 -2 14 6 16 19 3 13 9 31 13 40 4 11 2 19 -6 22 -8 3 -42 14
-75 26 l-62 22 54 161 c30 89 54 164 54 168 0 4 -8 9 -17 12 -10 3 -31 10 -48
15 l-30 9 -68 -201z"/>
<path d="M8733 3996 c-67 -18 -125 -34 -127 -37 -6 -6 93 -401 102 -411 4 -4
66 8 137 26 139 35 133 30 120 92 l-5 21 -85 -22 -85 -22 -14 46 -14 46 64 19
c66 19 70 25 56 72 -7 21 -9 21 -57 9 -27 -8 -57 -15 -65 -17 -10 -2 -18 11
-26 42 -6 25 -10 46 -9 48 2 2 38 12 80 22 42 10 79 21 82 24 7 6 -17 76 -25
75 -4 0 -62 -15 -129 -33z"/>
<path d="M6199 4008 c0 -2 -24 -96 -53 -211 l-52 -207 36 -10 c148 -39 212
-52 220 -44 4 5 10 23 13 40 l5 31 -74 17 c-50 12 -74 22 -74 32 0 13 60 263
76 315 3 12 -4 19 -23 24 -40 10 -73 16 -74 13z"/>
<path d="M6490 3935 c0 -2 23 -63 52 -137 28 -73 52 -146 52 -163 0 -33 -14
-136 -20 -146 -3 -6 54 -19 87 -19 12 0 19 13 24 48 17 123 4 96 118 234 87
105 95 116 80 120 -5 1 -23 5 -42 9 -18 4 -40 5 -47 2 -8 -3 -39 -41 -70 -85
-31 -43 -58 -77 -60 -75 -2 2 -17 45 -32 97 -21 66 -35 95 -48 100 -24 9 -94
20 -94 15z"/>
<path d="M8383 3910 c-13 -5 -23 -15 -24 -22 0 -7 -2 -22 -4 -33 -2 -11 -7
-45 -10 -75 -3 -30 -8 -64 -10 -75 -2 -11 -4 -33 -4 -50 -1 -41 -10 -27 -71
105 -29 63 -54 117 -56 119 -7 8 -66 2 -78 -8 -7 -6 -19 -46 -26 -89 -7 -42
-14 -86 -16 -97 -3 -11 -7 -35 -10 -54 -2 -19 -6 -36 -7 -38 -2 -1 -25 51 -51
116 -26 66 -54 125 -61 131 -11 9 -87 9 -112 1 -1 -1 40 -92 91 -203 90 -196
94 -203 124 -206 55 -6 68 9 82 95 7 43 14 85 15 95 2 9 7 37 10 63 4 26 11
43 15 38 4 -4 33 -66 65 -136 52 -114 61 -128 79 -123 12 3 31 6 43 6 22 0 28
11 37 65 3 17 17 98 31 180 13 83 27 162 30 178 4 25 2 27 -28 26 -17 0 -42
-4 -54 -9z"/>
<path d="M7077 3836 c-55 -28 -73 -66 -68 -143 2 -30 51 -77 99 -93 54 -17 82
-43 75 -70 -12 -44 -58 -47 -119 -9 l-35 21 -30 -28 c-27 -25 -28 -29 -13 -45
23 -26 78 -49 129 -56 82 -10 157 46 165 122 7 68 -31 119 -109 145 -50 16
-74 45 -61 70 15 27 43 29 95 7 l47 -21 19 25 c26 34 20 51 -26 73 -57 27
-118 27 -168 2z"/>
<path d="M7537 3835 c-72 -25 -103 -72 -92 -140 8 -56 39 -86 109 -108 68 -22
88 -40 77 -70 -13 -35 -58 -42 -111 -18 l-45 21 -23 -26 c-13 -15 -21 -31 -19
-37 7 -23 73 -49 132 -53 99 -5 160 45 166 137 4 60 -27 97 -105 123 -72 24
-86 34 -86 60 0 39 31 46 104 24 36 -11 40 -10 57 11 27 33 24 47 -13 64 -48
22 -108 27 -151 12z"/>
</g>
</svg>
